# xmcd
#
# Track frame offsets:
#  225
#  22839
#  48631
#  58942
#  70200
#  87528
#  98837
#  110084
#  134408
#  153944
#  165229
#  188777
#  203137
#  212288
#  223120
#  232120
#
# Disc length: 3363 seconds
#
# Revision: 3
# Processed by: cddbd v1.5.2PL0 Copyright (c) Steve Scherf et al.
# Submitted via: Collectorz.com_Music_Collector 6.11
#
DISCID=e50d2010
DTITLE=Eric Clapton - Eric Clapton (3cd Box) [CD3)
DYEAR=1997
DGENRE=Blues
TTITLE0=Five Long Years
TTITLE1=She's So Respectable
TTITLE2=Eric's Blues
TTITLE3=For Your Love
TTITLE4=Who Do You Love?
TTITLE5=I Got Love If You Want It
TTITLE6=Good Morning Little Schoolgirl
TTITLE7=Respectable
TTITLE8=I'm A Man
TTITLE9=Sweet Music
TTITLE10=23 Hours Too Long
TTITLE11=Out On The Water Coast
TTITLE12=I Ain't Got You
TTITLE13=Evil Heated You
TTITLE14=I Ain't Got You
TTITLE15=Medley
EXTD=
EXTT0=
EXTT1=
EXTT2=
EXTT3=
EXTT4=
EXTT5=
EXTT6=
EXTT7=
EXTT8=
EXTT9=
EXTT10=
EXTT11=
EXTT12=
EXTT13=
EXTT14=
EXTT15=
PLAYORDER=
